
<svg xmlns="http://www.w3.org/2000/svg"
     xmlns:xlink="http://www.w3.org/1999/xlink" version="1.1" width="542"
     height="691">
    <defs/>
    <g transform=" translate(-205.3,-274.45001220703125)">
        <rect x="378" y="308" width="182" height="98" fill="#efd3d2"
              stroke="#000000" stroke-width="1.4" pointer-events="none"/>
        <rect x="586.6" y="362.6" width="2.8" height="2.8" fill="#000000"
              stroke="none" pointer-events="none"/>
        <path d="M 561.4 364 L 586.6 364" fill="#000000" stroke="#000000"
              stroke-width="2.8" stroke-linecap="square" stroke-miterlimit="10"
              pointer-events="none"/>
        <g fill="#000000" font-family="Arial,Helvetica" font-weight="bold"
           text-anchor="end" font-size="17px">
            <text x="556.7" y="369.35">
                Q
            </text>
        </g>
        <rect x="582.4" y="358.4" width="11.2" height="11.2" fill="none"
              stroke="none" pointer-events="none"/>
        <rect x="348.6" y="362.6" width="2.8" height="2.8" fill="#000000"
              stroke="none" pointer-events="none"/>
        <path d="M 351.4 364 L 376.6 364" fill="#000000" stroke="#000000"
              stroke-width="2.8" stroke-linecap="square" stroke-miterlimit="10"
              pointer-events="none"/>
        <g fill="#000000" font-family="Arial,Helvetica" font-weight="bold"
           font-size="17px">
            <text x="380.8" y="369.35">
                CLK
            </text>
        </g>
        <rect x="344.4" y="358.4" width="11.2" height="11.2" fill="none"
              stroke="none" pointer-events="none"/>
        <rect x="474.6" y="432.6" width="2.8" height="2.8" fill="#000000"
              stroke="none" pointer-events="none"/>
        <path d="M 476 407.4 L 476 432.6" fill="#000000" stroke="#000000"
              stroke-width="2.8" stroke-linecap="square" stroke-miterlimit="10"
              pointer-events="none"/>
        <g fill="#000000" font-family="Arial,Helvetica" font-weight="bold"
           text-anchor="middle" font-size="17px">
            <text x="475.75" y="398.5">
                Reset
            </text>
        </g>
        <rect x="470.4" y="428.4" width="11.2" height="11.2" fill="none"
              stroke="none" pointer-events="none"/>
        <rect x="392" y="280" width="180.6" height="18.2" fill-opacity="0"
              fill="#dae2f2" stroke="#000000" stroke-opacity="0"
              pointer-events="none"/>
        <g fill="#000000" font-family="Arial,Helvetica" font-weight="bold"
           text-anchor="middle" font-size="17px">
            <text x="482.05" y="294.45">
                6-bit Reset Binary Counter
            </text>
        </g>
        <rect x="425.6" y="481.6" width="2.8" height="2.8" fill="#000000"
              stroke="none" transform="rotate(270,476,497)"
              pointer-events="none"/>
        <rect x="523.6" y="495.6" width="2.8" height="2.8" fill="#000000"
              stroke="none" transform="rotate(270,476,497)"
              pointer-events="none"/>
        <rect x="425.6" y="509.6" width="2.8" height="2.8" fill="#000000"
              stroke="none" transform="rotate(270,476,497)"
              pointer-events="none"/>
        <path d="M 428.4 483 L 450.8 483" fill="none" stroke="#000000"
              stroke-width="2.8" stroke-linecap="square" stroke-miterlimit="10"
              transform="rotate(270,476,497)" pointer-events="none"/>
        <path d="M 509.6 497 L 523.6 497" fill="none" stroke="#000000"
              stroke-width="2.8" stroke-linecap="square" stroke-miterlimit="10"
              transform="rotate(270,476,497)" pointer-events="none"/>
        <path d="M 428.4 511 L 450.8 511" fill="none" stroke="#000000"
              stroke-width="2.8" stroke-linecap="square" stroke-miterlimit="10"
              transform="rotate(270,476,497)" pointer-events="none"/>
        <path d="M 454.75 468.75 C 476.2 468.68 491.95 468.99 509.05 496.8 C 496.1 521.81 479.28 525.84 454.75 525.26"
              fill="#ffffff" stroke="#000000" stroke-width="2.3"
              stroke-linejoin="round" stroke-linecap="round"
              stroke-miterlimit="10" transform="rotate(270,476,497)"
              pointer-events="none"/>
        <path d="M 448.12 468.87 C 456.84 487.37 457.74 506.1 448.12 525.13"
              fill="none" stroke="#000000" stroke-width="2.8"
              stroke-linejoin="round" stroke-linecap="round"
              stroke-miterlimit="10" transform="rotate(270,476,497)"
              pointer-events="none"/>
        <path d="M 455 468.87 C 463.72 487.37 464.62 506.1 455 525.13"
              fill="none" stroke="#000000" stroke-width="2.8"
              stroke-linejoin="round" stroke-linecap="round"
              stroke-miterlimit="10" transform="rotate(270,476,497)"
              pointer-events="none"/>
        <rect x="470.4" y="442.4" width="11.2" height="11.2" fill="none"
              stroke="none" pointer-events="none"/>
        <rect x="456.4" y="540.4" width="11.2" height="11.2" fill="none"
              stroke="none" pointer-events="none"/>
        <rect x="484.4" y="540.4" width="11.2" height="11.2" fill="none"
              stroke="none" pointer-events="none"/>
        <path d="M 476 448 L 476 434" fill="none" stroke="#000000"
              stroke-width="2.8" stroke-miterlimit="10" pointer-events="none"/>
        <rect x="392" y="616" width="168" height="84" fill="#efd3d2"
              stroke="#000000" stroke-width="1.4" pointer-events="none"/>
        <rect x="586.6" y="656.6" width="2.8" height="2.8" fill="#000000"
              stroke="none" pointer-events="none"/>
        <path d="M 561.4 658 L 586.6 658" fill="#000000" stroke="#000000"
              stroke-width="2.8" stroke-linecap="square" stroke-miterlimit="10"
              pointer-events="none"/>
        <g fill="#000000" font-family="Arial,Helvetica" font-weight="bold"
           text-anchor="end" font-size="17px">
            <text x="556.7" y="663.35">
                Q
            </text>
        </g>
        <rect x="582.4" y="652.4" width="11.2" height="11.2" fill="none"
              stroke="none" pointer-events="none"/>
        <rect x="362.6" y="656.6" width="2.8" height="2.8" fill="#000000"
              stroke="none" pointer-events="none"/>
        <path d="M 365.4 658 L 390.6 658" fill="#000000" stroke="#000000"
              stroke-width="2.8" stroke-linecap="square" stroke-miterlimit="10"
              pointer-events="none"/>
        <g fill="#000000" font-family="Arial,Helvetica" font-weight="bold"
           font-size="17px">
            <text x="394.8" y="663.35">
                D
            </text>
        </g>
        <rect x="358.4" y="652.4" width="11.2" height="11.2" fill="none"
              stroke="none" pointer-events="none"/>
        <rect x="462" y="644" width="32.2" height="19.6" fill-opacity="0"
              fill="#dae2f2" stroke="#000000" stroke-opacity="0"
              pointer-events="none"/>
        <g fill="#000000" font-family="Arial,Helvetica" font-weight="bold"
           text-anchor="middle" font-size="17px">
            <text x="477.85" y="659.15">
                DFF
            </text>
        </g>
        <rect x="432.6" y="726.6" width="2.8" height="2.8" fill="#000000"
              stroke="none" pointer-events="none"/>
        <path d="M 434 701.4 L 434 726.6" fill="#000000" stroke="#000000"
              stroke-width="2.8" stroke-linecap="square" stroke-miterlimit="10"
              pointer-events="none"/>
        <g fill="#000000" font-family="Arial,Helvetica" font-weight="bold"
           text-anchor="middle" font-size="17px">
            <text x="433.75" y="692.5">
                CLK
            </text>
        </g>
        <rect x="428.4" y="722.4" width="11.2" height="11.2" fill="none"
              stroke="none" pointer-events="none"/>
        <rect x="502.6" y="726.6" width="2.8" height="2.8" fill="#000000"
              stroke="none" pointer-events="none"/>
        <path d="M 504 701.4 L 504 726.6" fill="#000000" stroke="#000000"
              stroke-width="2.8" stroke-linecap="square" stroke-miterlimit="10"
              pointer-events="none"/>
        <g fill="#000000" font-family="Arial,Helvetica" font-weight="bold"
           text-anchor="middle" font-size="17px">
            <text x="503.75" y="692.5">
                E
            </text>
        </g>
        <rect x="498.4" y="722.4" width="11.2" height="11.2" fill="none"
              stroke="none" pointer-events="none"/>
        <path d="M 364 658 L 350 658 L 350 574 L 462 574 L 462 546" fill="none"
              stroke="#000000" stroke-width="2.8" stroke-miterlimit="10"
              pointer-events="none"/>
        <path d="M 588 658 L 588 574 L 490 574 L 490 546" fill="none"
              stroke="#000000" stroke-width="2.8" stroke-miterlimit="10"
              pointer-events="none"/>
        <rect x="453.6" y="761.6" width="2.8" height="2.8" fill="#000000"
              stroke="none" transform="rotate(270,504,777)"
              pointer-events="none"/>
        <rect x="453.6" y="789.6" width="2.8" height="2.8" fill="#000000"
              stroke="none" transform="rotate(270,504,777)"
              pointer-events="none"/>
        <rect x="551.6" y="775.6" width="2.8" height="2.8" fill="#000000"
              stroke="none" transform="rotate(270,504,777)"
              pointer-events="none"/>
        <path d="M 456.4 763 L 476 763" fill="none" stroke="#000000"
              stroke-width="2.8" stroke-linecap="square" stroke-miterlimit="10"
              transform="rotate(270,504,777)" pointer-events="none"/>
        <path d="M 456.4 791 L 476 791" fill="none" stroke="#000000"
              stroke-width="2.8" stroke-linecap="square" stroke-miterlimit="10"
              transform="rotate(270,504,777)" pointer-events="none"/>
        <path d="M 484.46 748.6 L 475.69 748.61 C 475.7 766.03 475.79 783.74 475.8 805.3 L 484.32 805.43 C 498.44 805.4 509.73 806.39 518.85 801.54 C 526.75 797.34 533.52 788.65 533.47 777.19 C 533.42 765.38 526.8 757.73 518.19 752.54 C 509.78 747.48 498.36 748.62 484.46 748.6 Z"
              fill="#ffffff" stroke="#000000" stroke-width="2.27"
              stroke-linejoin="round" stroke-linecap="round"
              stroke-miterlimit="10" transform="rotate(270,504,777)"
              pointer-events="none"/>
        <path d="M 534.8 777 L 551.6 777" fill="none" stroke="#000000"
              stroke-width="2.8" stroke-linecap="square" stroke-miterlimit="10"
              transform="rotate(270,504,777)" pointer-events="none"/>
        <rect x="498.4" y="722.4" width="11.2" height="11.2" fill="none"
              stroke="none" pointer-events="none"/>
        <rect x="484.4" y="820.4" width="11.2" height="11.2" fill="none"
              stroke="none" pointer-events="none"/>
        <rect x="512.4" y="820.4" width="11.2" height="11.2" fill="none"
              stroke="none" pointer-events="none"/>
        <rect x="518" y="826" width="57.4" height="19.6" fill-opacity="0"
              fill="#dae2f2" stroke="#000000" stroke-opacity="0"
              pointer-events="none"/>
        <g fill="#000000" font-family="Arial,Helvetica" font-weight="bold"
           text-anchor="middle" font-size="17px">
            <text x="546.45" y="841.15">
                Q[MSB]
            </text>
        </g>
        <rect x="509.6" y="901.6" width="2.8" height="2.8" fill="#000000"
              stroke="none" transform="rotate(270,462,903)"
              pointer-events="none"/>
        <rect x="411.6" y="887.6" width="2.8" height="2.8" fill="#000000"
              stroke="none" transform="rotate(270,462,903)"
              pointer-events="none"/>
        <rect x="411.6" y="915.6" width="2.8" height="2.8" fill="#000000"
              stroke="none" transform="rotate(270,462,903)"
              pointer-events="none"/>
        <ellipse cx="498" cy="903" rx="3.473908459" ry="3.473908459000001"
                 fill="none" stroke="#000000" stroke-width="2.8"
                 transform="rotate(270,462,903)" pointer-events="none"/>
        <path d="M 502.6 903 L 509.6 903" fill="none" stroke="#000000"
              stroke-width="2.8" stroke-linecap="square" stroke-miterlimit="10"
              transform="rotate(270,462,903)" pointer-events="none"/>
        <path d="M 414.4 889 L 436.8 889" fill="none" stroke="#000000"
              stroke-width="2.8" stroke-linecap="square" stroke-miterlimit="10"
              transform="rotate(270,462,903)" pointer-events="none"/>
        <path d="M 414.4 917 L 436.8 917" fill="none" stroke="#000000"
              stroke-width="2.8" stroke-linecap="square" stroke-miterlimit="10"
              transform="rotate(270,462,903)" pointer-events="none"/>
        <path d="M 440.75 874.75 C 462.2 874.68 477.95 874.99 495.05 902.8 C 482.1 927.81 465.28 931.84 440.75 931.26"
              fill="#ffffff" stroke="#000000" stroke-width="2.3"
              stroke-linejoin="round" stroke-linecap="round"
              stroke-miterlimit="10" transform="rotate(270,462,903)"
              pointer-events="none"/>
        <path d="M 434.12 874.87 C 442.84 893.37 443.74 912.1 434.12 931.13"
              fill="none" stroke="#000000" stroke-width="2.8"
              stroke-linejoin="round" stroke-linecap="round"
              stroke-miterlimit="10" transform="rotate(270,462,903)"
              pointer-events="none"/>
        <path d="M 441 874.87 C 449.72 893.37 450.62 912.1 441 931.13"
              fill="none" stroke="#000000" stroke-width="2.8"
              stroke-linejoin="round" stroke-linecap="round"
              stroke-miterlimit="10" transform="rotate(270,462,903)"
              pointer-events="none"/>
        <rect x="456.4" y="848.4" width="11.2" height="11.2" fill="none"
              stroke="none" pointer-events="none"/>
        <rect x="442.4" y="946.4" width="11.2" height="11.2" fill="none"
              stroke="none" pointer-events="none"/>
        <rect x="470.4" y="946.4" width="11.2" height="11.2" fill="none"
              stroke="none" pointer-events="none"/>
        <path d="M 462 854 L 490 854 L 490 826" fill="none" stroke="#000000"
              stroke-width="2.8" stroke-miterlimit="10" pointer-events="none"/>
        <path d="M 448 952 L 350 952 L 350 660.8" fill="none" stroke="#000000"
              stroke-width="2.8" stroke-miterlimit="10" pointer-events="none"/>
        <ellipse cx="350" cy="658" rx="2.8" ry="2.8" fill="none"
                 stroke="#000000" stroke-width="2.8" pointer-events="none"/>
        <path d="M 476 952 L 588 952 L 588 658" fill="none" stroke="#000000"
              stroke-width="2.8" stroke-miterlimit="10" pointer-events="none"/>
        <path d="M 518 826 L 658 826 L 658 364 L 588 364" fill="none"
              stroke="#000000" stroke-width="2.8" stroke-miterlimit="10"
              pointer-events="none"/>
        <path d="M 714 644 L 742 658 L 714 672 Z" fill="#efd3d2"
              stroke="#000000" stroke-width="1.4" stroke-miterlimit="10"
              pointer-events="none"/>
        <path d="M 588 658 L 714 658" fill="none" stroke="#000000"
              stroke-width="2.8" stroke-miterlimit="10" pointer-events="none"/>
        <rect x="236.6" y="656.6" width="2.8" height="2.8" fill="#000000"
              stroke="none" pointer-events="none"/>
        <path d="M 211.4 658 L 236.6 658" fill="#000000" stroke="#000000"
              stroke-width="2.8" stroke-linecap="square" stroke-miterlimit="10"
              pointer-events="none"/>
        <rect x="232.4" y="652.4" width="11.2" height="11.2" fill="none"
              stroke="none" pointer-events="none"/>
        <path d="M 238 658 L 336 658 L 347.2 658" fill="none" stroke="#000000"
              stroke-width="2.8" stroke-miterlimit="10" pointer-events="none"/>
        <ellipse cx="350" cy="658" rx="2.8" ry="2.8" fill="none"
                 stroke="#000000" stroke-width="2.8" pointer-events="none"/>
        <rect x="210" y="616" width="56" height="42" rx="6.3" ry="6.3"
              fill="none" stroke="none" pointer-events="none"/>
        <g fill="#000" font-family="Arial,Helvetica" font-weight="bold"
           font-size="17px">
            <text x="212.8" y="642.6">
                btn
            </text>
        </g>
    </g>
</svg>